PathFileType	4	(X/Y/Z)	s08c0201.trc
DataRate	CameraRate	NumFrames	NumMarkers	Units	OrigDataRate	OrigDataStartFrame	OrigNumFrames
200	200	5	50	mm	200	1500	2000
Frame#	Time	racr			lacr			c7			jug			rlel			rdr			llel			ldr			s2			lic			ric			lasi			rasi			rpsi			lpsi			rgt			lgt			rth1			rth2			rth3			rth4			rlfc			rmfc			rsh1			rsh2			rsh3			rsh4			rlmal			rmmal			rcal			rtoe			rmt5			lth1			lth2			lth4			lth3			llfc			lmfc			llmal			lmmal			lcal			lmt5			lsh1			lsh2			lsh3			lsh4			ltoe			SBIKE			LBIKE			RBIKE			
		X1	Y1	Z1	X2	Y2	Z2	X3	Y3	Z3	X4	Y4	Z4	X5	Y5	Z5	X6	Y6	Z6	X7	Y7	Z7	X8	Y8	Z8	X9	Y9	Z9	X10	Y10	Z10	X11	Y11	Z11	X12	Y12	Z12	X13	Y13	Z13	X14	Y14	Z14	X15	Y15	Z15	X16	Y16	Z16	X17	Y17	Z17	X18	Y18	Z18	X19	Y19	Z19	X20	Y20	Z20	X21	Y21	Z21	X22	Y22	Z22	X23	Y23	Z23	X24	Y24	Z24	X25	Y25	Z25	X26	Y26	Z26	X27	Y27	Z27	X28	Y28	Z28	X29	Y29	Z29	X30	Y30	Z30	X31	Y31	Z31	X32	Y32	Z32	X33	Y33	Z33	X34	Y34	Z34	X35	Y35	Z35	X36	Y36	Z36	X37	Y37	Z37	X38	Y38	Z38	X39	Y39	Z39	X40	Y40	Z40	X41	Y41	Z41	X42	Y42	Z42	X43	Y43	Z43	X44	Y44	Z44	X45	Y45	Z45	X46	Y46	Z46	X47	Y47	Z47	X48	Y48	Z48	X49	Y49	Z49	X50	Y50	Z50	
1500	7.5000	562.245169	1348.790113	-68.109751	548.559152	1313.554545	-422.354158	533.395436	1429.890592	-249.275993	495.273723	1269.879788	-235.106943	568.479700	1116.727088	75.568632	765.996251	937.125680	-54.924424	542.050548	1053.961170	-538.942163	768.428606	932.515081	-427.507343	-8.008250	1197.537811	-216.992227	176.733338	1214.220729	-399.364816	151.041856	1208.643465	-43.522806	177.217027	1165.182853	-320.579337	179.627959	1147.462683	-77.365526	23.614051	1234.589106	-161.104453	21.565544	1243.228933	-256.076159	74.799825	1074.486571	-33.354470	123.387417	1103.137037	-401.687813	177.304747	929.003459	-27.589589	241.217744	867.296873	-32.615479	264.767944	784.544686	-48.634123	272.346652	886.672442	-38.682764	327.814329	685.150107	-64.512828	306.431532	668.796553	-170.072579	291.553151	557.018259	-31.520407	315.632042	472.034522	-47.973801	292.937687	388.534114	-54.553297	343.351501	476.049715	-77.991454	287.248902	265.903452	-61.918751	299.557099	290.249851	-150.169704	215.145064	226.147746	-107.508757	510.742690	256.929969	-107.466965	428.235594	211.651550	-41.752607	228.153734	1022.458310	-395.451445	310.196528	994.633094	-383.576902	327.577862	1022.094270	-365.858681	368.806881	928.009296	-381.960992	438.545535	827.900130	-356.355089	424.992183	794.185242	-250.710114	121.736044	561.897583	-396.027249	153.858603	552.942243	-312.462753	55.552121	580.679157	-357.463097	177.165642	405.411806	-421.517054	350.313141	744.741074	-388.429110	298.256462	677.471670	-381.917141	218.332650	640.252329	-389.084238	313.705586	658.102738	-350.038419	260.460579	375.991856	-354.025543	-139.296021	941.925659	-226.299633	17.072207	80.478517	-427.942698	17.057964	79.733439	-29.456854	
1501	7.5050	563.025538	1350.367442	-70.885705	548.094226	1312.589847	-425.133334	533.791123	1430.292338	-252.626587	495.387539	1270.469078	-237.208039	569.906759	1118.787522	73.707458	766.400549	937.138242	-55.297885	541.270550	1051.583919	-538.912350	768.227634	932.341079	-426.848866	-7.844824	1198.194021	-213.202080	182.032712	1218.392256	-404.693294	154.659409	1208.160633	-41.688169	176.472324	1167.337223	-318.989603	181.431215	1146.257690	-75.565181	25.272372	1235.107749	-157.045974	21.527139	1244.338714	-251.149606	75.371137	1074.143965	-31.755696	122.420527	1107.230634	-400.433914	173.662061	926.569848	-26.142358	235.833858	863.168902	-31.263624	257.080753	779.788322	-47.157675	267.310781	881.674166	-38.012183	317.734907	678.646561	-63.471784	294.475227	663.342101	-169.163278	282.825291	550.552591	-29.870805	307.015429	465.817833	-46.866694	285.103205	381.984416	-53.763368	333.680134	470.322324	-75.690417	280.843638	259.231467	-61.481109	293.165634	283.741988	-149.624611	208.745526	220.323179	-107.428476	504.836973	247.350793	-107.309627	421.781664	203.110575	-41.582872	228.240454	1027.445658	-394.318415	310.683137	1001.193693	-382.629239	327.608311	1028.902476	-364.685312	371.214319	935.633284	-380.602733	442.540844	836.464674	-355.700489	429.586050	802.430409	-250.024621	126.139995	570.140201	-395.037723	158.386733	561.457030	-311.623266	59.323238	587.943506	-356.735202	183.954876	414.970267	-421.326027	354.315437	753.510637	-387.535744	301.771740	685.734780	-379.899176	222.454253	648.882933	-388.177546	318.306122	666.520173	-350.461678	267.633015	386.253539	-352.932095	-139.214376	941.999514	-225.915363	17.105144	80.636479	-427.925672	17.062603	79.759468	-29.433045	
1502	7.5100	564.052939	1351.747715	-73.979031	547.017120	1310.585085	-425.738706	534.137108	1430.619618	-255.942480	495.066176	1271.259352	-237.709326	571.033155	1120.806026	71.200457	766.654486	937.070719	-55.584741	540.530074	1049.244471	-538.769851	767.972141	932.339274	-426.247021	-8.821562	1198.341752	-208.963398	185.416201	1221.822214	-407.949342	157.949956	1207.494798	-40.204554	175.653210	1169.384831	-317.441642	182.849715	1144.709302	-74.429205	27.079506	1235.549051	-153.355050	21.597451	1245.342852	-247.508051	75.891263	1074.131662	-30.170435	121.434874	1111.267081	-399.019058	169.910749	924.409353	-24.568612	230.407333	859.181529	-29.675697	249.118206	775.429571	-45.183729	263.263025	877.367517	-35.516655	307.510485	672.649097	-62.508497	283.484536	657.626388	-167.855451	272.741126	544.282890	-28.659121	297.894662	459.981352	-45.597565	276.791799	375.967519	-52.843002	324.766447	464.766198	-74.305936	273.887804	253.041080	-60.879205	286.520576	277.692836	-148.948495	201.836838	215.117620	-107.326004	498.511764	237.925544	-107.196353	414.824258	194.926067	-41.424199	228.251094	1032.625861	-393.384820	311.246799	1007.997863	-381.782508	327.548631	1035.867927	-363.428734	373.079723	943.645069	-380.270593	446.419839	844.879056	-355.204574	434.147486	810.737370	-249.633236	130.793722	577.914318	-394.117494	163.248677	569.527038	-310.907466	63.239532	594.477466	-355.999712	191.298771	424.139973	-421.102216	358.534354	762.263384	-386.825818	306.008073	694.258752	-379.371078	226.798850	657.233040	-387.420249	323.269517	675.321618	-351.416730	274.305590	396.238415	-352.343166	-139.107083	942.113858	-225.528920	17.105929	80.782420	-427.981862	17.052005	79.764081	-29.357701	
1503	7.5150	565.038177	1353.616919	-76.591597	546.498373	1309.636302	-428.141126	534.454014	1430.772504	-259.079591	495.469195	1271.540572	-239.620739	572.312606	1122.737444	68.933154	766.644675	936.838129	-56.287378	539.715065	1047.002770	-538.676915	767.710598	932.470866	-425.804756	-5.090589	1198.258048	-206.550868	187.073712	1224.576254	-409.344839	161.071208	1206.839473	-39.173731	174.820842	1171.464532	-316.069383	184.558455	1143.242511	-73.253242	28.039511	1236.132478	-149.765499	22.036896	1246.441911	-244.360116	76.217287	1074.245874	-28.731718	120.515594	1115.262655	-397.660377	166.135487	922.561110	-22.907992	224.775396	855.713791	-28.019752	241.341053	771.354325	-42.779496	260.112061	873.371713	-32.893775	297.298687	667.151940	-60.840871	272.696503	652.392625	-166.452929	262.581058	538.752565	-27.221008	288.566396	454.615741	-44.172915	268.117318	370.568881	-51.701288	315.900014	459.631054	-73.489531	266.505602	247.540862	-60.156588	279.750610	272.057780	-148.219713	194.178899	210.284140	-107.644521	491.716600	228.898456	-107.154465	407.463537	187.169061	-41.312382	228.231057	1038.028076	-392.605685	311.732262	1014.846352	-381.127015	327.419070	1042.809651	-362.211325	374.831239	951.753487	-380.134883	449.495153	853.235447	-355.617053	438.681408	819.069866	-249.554061	135.810985	585.129952	-393.332298	168.863328	577.693039	-310.268734	67.996052	600.563085	-355.209598	199.122201	432.831162	-420.689442	360.718956	766.875985	-378.819748	310.390254	702.623059	-379.023079	231.319624	665.284449	-386.813361	328.414632	682.959605	-351.703132	282.210736	406.580404	-352.630335	-139.016778	942.230251	-225.232265	17.115033	81.055905	-427.864529	17.068867	79.818508	-29.337471	
1504	7.5200	566.057793	1355.479022	-79.240959	546.073529	1308.991118	-430.589115	534.713412	1430.924644	-262.136530	496.049649	1271.743169	-241.684498	573.674651	1124.689507	66.760325	766.488932	936.602288	-57.195282	538.896117	1044.880189	-538.644183	767.463425	932.730789	-425.609450	-5.980863	1199.511918	-202.166786	187.195197	1226.719534	-409.091662	164.100860	1206.303504	-38.250353	174.047481	1173.387333	-314.805682	185.950929	1141.656268	-72.328014	28.768166	1236.935914	-146.486531	22.553484	1247.739621	-241.813213	76.501396	1074.507708	-27.359141	119.640033	1119.285776	-396.445290	162.179883	920.727274	-21.380871	219.183542	852.438292	-26.133115	233.630571	767.749205	-40.302299	253.055867	868.558561	-32.507917	286.977424	662.197145	-59.335830	262.280040	647.691451	-165.068144	252.324304	533.795420	-25.870194	279.046436	449.854631	-42.572886	259.190174	365.570741	-50.543467	306.504756	455.163056	-71.683746	258.875188	242.550154	-59.427841	272.284433	267.449181	-147.374747	186.715076	206.601704	-107.088925	484.505075	220.372701	-107.005904	399.701646	179.917111	-41.134582	228.201719	1043.528358	-391.915418	312.091331	1021.821830	-380.497210	327.208993	1049.846301	-361.056449	376.287290	959.901919	-380.187788	453.576646	862.430218	-354.813231	443.192765	827.391512	-249.805135	141.205790	591.768754	-392.749580	173.930182	584.279334	-309.577079	72.819342	605.988807	-354.790493	207.216670	440.881049	-420.544828	366.757919	779.192097	-386.121541	314.978215	710.646748	-378.876870	236.080276	672.865992	-386.458427	333.271897	690.799617	-351.879175	290.478167	415.840817	-351.835377	-138.941769	942.376953	-224.856494	17.091966	81.222867	-427.798357	17.085620	79.857111	-29.291811	
